<svg width="1920" height="1068" viewBox="0 0 1920 1068" fill="none" xmlns="http://www.w3.org/2000/svg">
<path d="M1920 0H0V865H1920V0Z" fill="white"/>
<path d="M0 400.023C0 400.023 59.9975 428.98 67.9972 444.979C75.9968 460.977 127.995 488.995 127.995 488.995L185.992 507.013L233.99 541.03L255.989 559.048L281.988 567.047L307.987 575.047L329.986 603.064L385.984 593.065L439.982 551.049L501.979 545.049L555.977 511.033L653.973 471.016L723.97 519.032L753.969 533.031L817.966 515.012L853.964 543.03L981.959 454.978L1083.95 376.945L1166.13 290.433L1183.95 322.91L1299.95 268.495L1338.74 226.659L1362.04 256.736L1375.4 274.295L1393.92 276.875L1447.92 324.89L1491.92 328.89L1523.92 314.891L1593.91 398.923L1761.91 482.955L1829.9 540.99L1885.9 563.008L1919.9 580.286V849.161H0V400.003V400.023Z" fill="#FFF8FF"/>
<path d="M0 401.163L69.2171 437.86L90.0363 466.717L185.992 508.093L231.51 540.15L249.99 546.23L241.05 565.468L31.7387 586.086L0 596.125V543.35V527.131V401.163Z" fill="#EFE9FF"/>
<path d="M456.881 572.907C458.181 568.848 459.481 564.768 460.781 560.708H469.36L470.52 556.689L462.221 549.929L501.979 546.09L512.719 539.33L534.818 525.432L530.658 538.01L526.638 541.39L530.658 543.21L523.638 547.37C523.638 547.37 515.838 550.489 515.458 551.009C515.079 551.529 495.859 563.088 495.719 563.868C495.579 564.648 479.62 568.288 479.62 568.288L470.52 572.447L456.881 572.967V572.907Z" fill="#EFE9FF"/>
<path d="M653.973 472.096L721.27 518.232L682.112 546.849L653.973 572.487L664.432 592.665L517.978 627.782V616.623L627.714 533.171L653.973 472.096Z" fill="#EFE9FF"/>
<path d="M817.966 516.092L858.684 547.489L850.025 599.725L756.169 625.042L741.289 609.164L771.648 578.027L797.567 557.528L811.226 538.23L817.966 516.092Z" fill="#EFE9FF"/>
<path d="M1166.13 291.653C1166.53 292.253 1168.13 309.732 1168.13 309.732C1168.13 309.732 1164.51 318.971 1164.31 319.571C1164.11 320.171 1173.15 356.347 1173.15 356.347C1173.15 356.347 1193.81 383.745 1194.97 385.485C1195.41 386.144 1179.77 402.163 1179.77 402.163L1185.39 414.822L1200.07 433.3C1200.07 433.3 1200.47 440.339 1201.07 442.539C1201.67 444.739 1202.87 448.779 1202.87 448.779L1208.09 423.261L1209.49 395.924L1205.47 373.626L1206.27 357.147L1209.49 329.01L1218.93 313.731L1219.45 307.432L1204.11 314.171L1192.59 316.311L1181.13 307.912L1171.91 295.613L1168.59 293.253L1166.05 291.633L1166.13 291.653Z" fill="#EFE9FF"/>
<path d="M1350.16 264.176C1351.78 267.815 1356.64 287.094 1355.96 288.094C1353.06 292.453 1355 338.849 1355 338.849L1366.6 379.945L1358.14 441.099L1380.62 452.698L1397.96 433.38L1414.1 435L1459.68 542.69L1570.59 580.206L1752.49 547.529L1673.43 447.099L1627.87 417.082L1566.55 365.246L1523.94 316.131L1500.4 326.93C1500.4 326.93 1484.88 329.33 1483.26 329.33C1481.64 329.33 1447.94 326.11 1447.94 326.11L1393.94 278.115L1375.42 275.535L1343.52 233.659L1351.88 259.356L1350.18 264.196L1350.16 264.176Z" fill="#EFE9FF"/>
<path d="M4.93979 592.585L31.3787 584.606L26.1789 562.788L94.3561 574.507L83.9965 562.548C83.9965 562.548 79.9967 558.548 97.9959 558.548C115.995 558.548 133.994 554.549 133.994 554.549C133.994 554.549 97.9959 532.511 99.9958 530.511C101.996 528.511 142.134 526.511 146.054 530.511C149.974 534.511 179.993 548.549 185.992 552.549C191.992 556.549 201.992 554.549 213.991 556.549C225.991 558.548 237.99 556.549 237.99 554.549C237.99 552.549 221.991 542.53 221.991 542.53L249.99 546.53L269.989 564.568H289.988L310.707 578.047L329.026 601.384L371.625 595.185L397.643 585.386L404.103 592.605L406.003 602.624L432.002 586.606L440.002 596.625L462.001 594.625C462.001 594.625 460.001 596.625 468 598.625C476 600.625 497.999 596.625 497.999 596.625L517.998 588.606L526.378 610.264L517.998 616.643V627.822C517.998 627.822 551.997 618.663 553.997 618.663C555.997 618.663 567.996 614.663 567.996 614.663L609.995 582.606L625.994 574.587L659.993 548.549L679.992 518.492L721.29 518.272L730.65 523.392L713.99 532.511L703.991 546.53L710.89 553.989L713.07 557.848L716.45 562.688L725.63 566.788L721.29 575.247V582.746C721.29 582.746 712.75 591.925 714.75 591.925C716.75 591.925 716.61 609.344 716.61 609.344L681.992 612.643L723.99 608.644L769.988 606.644L829.985 586.606V566.808L847.985 550.529L849.065 540.35L911.242 504.933L971.42 463.497L997.358 444.439L991.979 466.397L995.979 474.416L977.979 482.436L931.981 514.493L907.982 532.531L933.981 534.531L873.984 570.587L887.983 574.587L981.059 540.11L1045.98 526.511L1095.97 500.474L1073.98 490.455L1095.97 484.855L1129.97 482.436L1149.97 474.416L1157.97 458.398L1179.97 462.397L1203.97 442.359L1233.97 410.302L1237.31 416.002C1237.31 416.002 1239.93 420.201 1241.17 425.921C1242.07 430.06 1233.95 442.379 1233.95 442.379L1227.95 452.398H1235.95L1243.95 446.379L1247.95 448.379L1255.95 434.36L1279.95 452.398L1275.95 422.341L1279.95 417.342L1305.95 448.399L1313.95 488.475L1331.94 480.456L1327.94 504.493H1337.94L1369.94 484.455V495.114L1365.94 506.493L1397.94 488.455L1409.94 480.436L1433.94 510.493L1414.1 435.12L1465.94 488.455L1489.94 500.474L1499.88 513.073L1481.94 508.493L1465.94 504.493L1467.94 516.512L1507.94 542.55L1563.93 568.587L1573.93 566.588L1553.94 552.569L1567.93 542.55L1545.94 514.493L1517.94 476.416L1485.94 432.34L1479.94 420.321L1531.94 444.359L1573.93 477.396L1613.93 498.454L1655.93 522.492L1725.93 532.511L1627.87 417.142L1745.93 470.417L1781.93 498.474L1835.92 542.55L1891.92 568.587L1919.92 581.726V843.062H0V592.625H4.93979V592.585Z" fill="#E9DFFF"/>
<path d="M269.989 564.528L263.209 578.847L271.809 602.044L288.368 608.324L299.168 634.421L302.347 650.06L322.327 673.978L349.285 689.696L355.485 661.599L304.347 594.085L269.989 564.528Z" fill="#DBD4FF"/>
<path d="M457.361 621.243L431.802 623.642L423.002 637.801L416.583 633.101L402.243 644.82L399.443 660.799L418.943 684.357L448.981 665.199L470.94 657.199L474.94 637.801V618.843L457.361 621.243Z" fill="#DBD4FF"/>
<path d="M724.63 651.6C724.63 651.6 653.913 641.621 652.313 641.621C650.713 641.621 591.995 667.258 591.995 667.258C591.995 667.258 585.196 712.314 582.416 716.314C579.636 720.313 552.457 751.47 552.457 751.47L562.037 779.828L613.974 819.384L656.313 821.384L724.63 651.6Z" fill="#DBD4FF"/>
<path d="M1190.79 522.252L1179.27 504.593L1118.95 513.412C1118.95 513.412 1096.97 544.93 1094.97 546.529C1092.97 548.129 1051.04 560.908 1046.24 565.708C1041.44 570.507 1024.66 584.086 1018.28 591.265C1011.88 598.465 988.319 619.623 982.719 619.223C977.119 618.823 944.361 604.444 936.781 609.244C929.201 614.043 903.622 632.421 900.023 633.621C896.423 634.821 869.284 644.28 869.284 644.28L847.685 648.8C847.685 648.8 1009.08 687.156 1010.68 687.156C1012.28 687.156 1084.59 613.643 1084.99 606.464C1085.39 599.284 1138.53 560.128 1138.53 560.128L1190.79 522.252Z" fill="#DBD4FF"/>
<path d="M1320.71 575.187L1338.28 562.908C1338.28 562.908 1346.68 572.687 1345.48 575.187C1344.28 577.687 1342.28 594.065 1342.28 594.065L1317.11 609.244L1320.69 575.187H1320.71Z" fill="#DBD4FF"/>
<path d="M1278.37 464.237C1278.37 464.237 1283.97 446.659 1285.97 447.059C1287.97 447.459 1300.35 457.838 1300.35 457.838C1300.35 457.838 1296.75 487.395 1300.35 493.394C1303.95 499.394 1313.53 512.973 1313.53 514.172C1313.53 515.372 1303.55 530.551 1303.55 530.551C1303.55 530.551 1277.99 515.372 1278.37 510.973C1278.75 506.573 1279.97 487.395 1278.37 483.815C1276.77 480.236 1278.37 464.237 1278.37 464.237Z" fill="#DBD4FF"/>
<path d="M1447.74 567.367C1447.74 567.367 1426.98 554.529 1426.58 556.128C1426.18 557.728 1422.98 574.507 1422.98 578.106C1422.98 581.706 1441.36 609.264 1442.16 614.863C1442.96 620.462 1435.16 628.642 1435.36 633.641C1435.56 638.641 1438.56 652.02 1438.96 656.819C1439.36 661.619 1454.94 684.377 1454.94 684.377C1454.94 684.377 1508.48 692.776 1509.68 685.176C1510.88 677.577 1479.32 599.284 1479.32 599.284L1447.74 567.387V567.367Z" fill="#DBD4FF"/>
<path d="M1554.02 490.615C1555.22 492.215 1657.09 537.75 1657.09 537.75L1715.43 542.15L1767.11 570.967C1767.11 570.967 1740.21 609.664 1735.01 609.264C1729.81 608.864 1651.51 607.264 1651.51 607.264C1651.51 607.264 1605.57 612.463 1598.77 606.464C1591.97 600.464 1575.03 594.085 1575.03 594.085L1604.75 566.128L1579.19 530.571L1556.02 508.593L1554.02 490.615Z" fill="#DBD4FF"/>
<path d="M1175.93 628.662L1218.03 622.442L1250.79 633.221L1231.21 675.177L1146.91 678.377L1175.93 628.662Z" fill="#DBD4FF"/>
<path d="M0 671.178C0 671.178 16.2993 660.399 19.0992 661.199C21.8991 661.999 49.058 669.198 49.058 669.198C49.058 669.198 72.637 696.756 72.637 699.955C72.637 703.155 105.396 717.534 106.596 718.334C107.796 719.133 121.035 734.312 121.035 734.312L152.934 773.868L161.333 822.204C161.333 822.204 126.175 836.982 123.375 837.382C120.575 837.782 0 838.962 0 838.962V671.178Z" fill="#DBD4FF"/>
<path d="M302.347 746.071C297.548 747.091 265.989 725.113 265.989 725.113L232.83 750.05L220.851 774.648L274.389 794.226C274.389 794.226 297.568 815.004 298.768 816.204C299.967 817.404 365.485 791.027 365.485 791.027L415.823 746.071L365.085 727.113L303.967 729.512L302.367 746.071H302.347Z" fill="#DBD4FF"/>
<path d="M61.5774 627.362C60.5375 626.842 33.9186 602.584 35.2385 602.064C36.5585 601.544 71.497 610.923 72.277 610.923H95.236C95.236 610.923 116.095 629.442 119.495 630.222C122.895 631.002 152.894 633.881 152.894 633.881L156.813 644.84C156.813 644.84 116.375 645.1 114.815 644.84C113.255 644.58 96.016 650.06 96.016 650.06L62.6574 637.021L61.6174 627.362H61.5774Z" fill="#E0D4FF"/>
<path d="M121.035 591.365L149.474 617.183C149.474 617.183 181.032 627.882 181.812 628.402C182.592 628.922 207.891 628.662 208.671 628.402C209.451 628.142 264.229 637.801 264.229 637.801C264.229 637.801 279.368 635.721 278.048 635.721C276.728 635.721 227.191 613.283 227.191 613.283L237.37 611.203L167.193 584.606L145.274 578.866L142.934 588.266L121.015 591.405L121.035 591.365Z" fill="#E0D4FF"/>
<path d="M289.988 564.528L310.707 578.007L332.846 607.284L363.905 616.663H377.984L391.804 629.702L416.583 633.101L418.943 659.439L398.583 656.839L367.805 672.218L349.285 689.696L306.507 647.44L314.067 626.042L297.648 602.044L269.989 564.528H289.988Z" fill="#E0D4FF"/>
<path d="M626.314 692.836C626.314 692.836 682.912 669.878 683.692 669.098C684.471 668.318 738.989 641.181 738.989 641.181L745.769 658.139L763.248 652.4C763.248 652.4 770.028 656.579 770.808 656.579C771.588 656.579 796.107 644.32 796.107 644.32C796.107 644.32 824.806 640.921 826.626 641.181C828.445 641.441 850.625 628.662 850.625 628.662L855.584 644.84L921.062 642.241L941.141 626.842L972.439 653.7L1031.14 610.923L1091.39 566.848H1122.17L1190.77 522.252C1190.77 522.252 1143.81 574.427 1142.51 575.987C1141.21 577.547 1095.55 607.544 1095.55 607.544L1091.37 643.8L1129.45 650.06L1175.89 628.662L1175.11 650.58L1224.93 642.761L1292.49 597.905L1320.66 575.207L1325.36 598.945L1360.58 567.907L1385.62 628.942L1395.54 649.8L1415.88 634.941L1430.22 626.082L1445.62 662.599L1480.32 663.119L1452.92 577.307L1447.7 567.388C1447.7 567.388 1479.52 563.468 1481.36 566.088C1483.2 568.707 1525.7 613.823 1525.7 613.823C1525.7 613.823 1552.04 615.123 1552.82 615.643C1553.6 616.163 1602.63 622.682 1602.63 622.682C1602.63 622.682 1573.41 593.925 1574.97 594.085C1576.53 594.245 1651.15 603.624 1651.15 603.624L1675.41 583.806L1666.55 558.768L1694.47 564.508L1767.77 571.027L1764.11 532.691L1735.93 503.733L1741.67 496.954L1726.81 477.656L1745.89 470.257C1745.89 470.257 1799.83 512.033 1800.09 513.073C1800.35 514.113 1855.14 550.149 1855.14 550.149L1919.88 578.067L1919.72 871.959H626.314V692.836Z" fill="#E0D4FF"/>
<path d="M626.314 692.836C626.314 692.836 552.977 720.753 538.558 720.753C524.138 720.753 461.941 706.795 461.941 706.795C461.941 706.795 398.983 712.394 390.644 713.154C382.304 713.914 350.165 754.21 345.366 758.77C340.566 763.329 292.028 765.449 287.488 770.849C282.948 776.248 276.768 795.326 263.209 790.347C249.65 785.367 210.871 811.225 192.672 807.405C174.473 803.606 121.475 789.927 121.035 789.167C120.595 788.407 56.1177 783.847 56.1177 783.847L0 791.467V871.959H626.314" fill="#E0D4FF"/>
<path d="M1160.01 245.826L1157.98 246.092L1164.53 295.899L1166.55 295.633L1160.01 245.826Z" fill="#D7C9FF"/>
<path d="M1184.09 255.737L1161.65 258.677L1159.97 245.878L1182.41 242.938L1173.09 250.677L1184.09 255.737Z" fill="#FADFFF"/>
<path d="M0 1067.36V871.959H1919.76L1920 1067.36H0Z" fill="#E0D4FF"/>
</svg>
