<svg width="686" height="702" viewBox="0 0 686 702" fill="none" xmlns="http://www.w3.org/2000/svg">
<path d="M44.2394 288.683L68.8281 262.725C80.1557 250.767 99.0352 250.255 110.994 261.581L242.871 386.492C254.829 397.818 255.341 416.697 244.013 428.655L236.721 436.354C225.393 448.312 206.514 448.824 194.555 437.498L44.4185 295.292C42.5549 293.527 42.4753 290.59 44.2406 288.726L44.2394 288.683Z" fill="#4E5FAA" stroke="#231F20" stroke-width="0.75" stroke-miterlimit="10" stroke-linecap="round"/>
<path d="M194.398 184.843L211.94 187.471C218.514 188.445 223.089 194.635 222.076 201.189L222.915 222.503C223.214 230.079 222.807 237.635 221.687 245.142L220.633 252.216C219.462 259.991 217.553 267.629 214.909 275.033L210.047 288.668C208.695 292.489 206.773 296.093 204.174 299.223C201.575 302.354 198.79 304.393 194.57 303.76L177.029 301.132C152.548 297.476 135.503 274.422 139.161 249.941L143.234 222.703C146.891 198.222 169.946 181.178 194.428 184.834L194.398 184.843Z" fill="#4E5FAA" stroke="black" stroke-width="0.75" stroke-miterlimit="10"/>
<path d="M184.238 302.211C184.238 302.211 202.248 278.666 205.845 246C209.443 213.335 204.664 186.379 204.664 186.379" fill="#4E5FAA"/>
<path d="M184.238 302.211C184.238 302.211 202.248 278.666 205.845 246C209.443 213.335 204.664 186.379 204.664 186.379" stroke="black" stroke-width="0.75" stroke-miterlimit="10"/>
<path d="M557.397 241.821L571.531 285.644L553.34 402.169L531.239 416.778" fill="#99539F"/>
<path d="M557.397 241.821L571.531 285.644L553.34 402.169L531.239 416.778" stroke="black" stroke-width="0.75" stroke-miterlimit="10"/>
<path d="M238.608 670.688L235.374 669.613C225.593 665.553 222.39 664.915 218.736 660.05C215.083 655.185 213.272 649.982 213.531 645.457L214.472 628.464L279.877 649.974L270.487 664.337C267.993 668.168 263.694 671.246 257.639 673.079C251.584 674.912 249.29 673.568 238.629 670.65L238.608 670.688Z" fill="#99539F" stroke="#231F20" stroke-width="0.75" stroke-miterlimit="10"/>
<path opacity="0.21" d="M216.336 635.401L252.373 649.189L258.084 654.798L257.342 662.737L254.259 668.835L251.527 672.83L268.982 666.295L276.832 652.438L274.895 647.239L215.35 628.975L216.336 635.401Z" fill="black"/>
<path d="M269.946 646.943L223.182 631.56C182.914 618.318 158.612 581.165 169.182 548.978C175.055 531.111 180.957 513.235 186.83 495.367L208.163 430.556C209.117 427.676 214.552 412.604 234 405.369C246.353 400.775 261.402 400.367 276.246 405.231L361.665 433.333C391.325 443.07 409.193 470.433 401.401 494.129L362.428 612.581C351.85 644.738 310.222 660.214 269.954 646.972L269.946 646.943Z" fill="#6054A2" stroke="#231F20" stroke-width="0.75" stroke-miterlimit="10" stroke-linecap="round"/>
<path opacity="0.19" d="M291.492 650.011L316.842 649.826L352.286 630.084L372.329 578.615L391.633 519.918L400.99 491.481L400.059 467.078L386.182 449.41L374.105 438.792L328.899 586.151L314.649 618.917L291.492 650.011Z" fill="black"/>
<path d="M177.95 522.364L178.685 523.043C230.701 570.905 300.93 593.828 371.149 585.916" stroke="#231F20" stroke-width="0.75" stroke-miterlimit="10" stroke-linecap="round"/>
<path d="M225.736 507.41C220.265 524.018 202.356 533.068 185.747 527.597C183.647 526.928 181.673 526.032 179.842 524.968L198.483 465.953C200.834 466.169 203.223 466.628 205.549 467.422C222.187 472.885 231.208 490.802 225.736 507.41Z" fill="white" stroke="#231F20" stroke-width="0.75" stroke-miterlimit="10" stroke-linecap="round"/>
<path d="M200.37 475.521L186.261 518.198L218.627 487.513" stroke="#231F20" stroke-width="0.75" stroke-miterlimit="10" stroke-linecap="round"/>
<path d="M471 159.794L553.344 207.091C558.435 210.43 561.083 217.11 560.08 223.915L530.714 420.266C529.51 428.369 523.456 434.526 516.379 434.904L428.6 434.471" fill="#6464AC"/>
<path d="M471 159.794L553.344 207.091C558.435 210.43 561.083 217.11 560.08 223.915L530.714 420.266C529.51 428.369 523.456 434.526 516.379 434.904L428.6 434.471" stroke="black" stroke-width="0.75" stroke-miterlimit="10"/>
<path d="M187.483 136.596L467.292 158.728C475.071 159.357 480.525 167.393 479.188 176.361L442.596 420.98C441.18 430.447 432.842 436.623 424.981 434.047L154.997 346.114C148.576 344.015 144.677 336.741 145.805 329.041L172.542 150.231C173.78 142.023 180.3 136.05 187.454 136.604L187.483 136.596Z" fill="#6053A2" stroke="black" stroke-width="0.75" stroke-miterlimit="10"/>
<path d="M186.582 163.369L163.311 319.026C162.598 323.745 164.954 328.187 168.864 329.513L413.954 413.462C418.826 415.148 424.056 411.326 424.943 405.445L458.632 180.066C459.478 174.483 456.005 169.471 451.122 169.187L195.606 154.93C191.244 154.687 187.336 158.352 186.574 163.34L186.582 163.369Z" fill="#99539F" stroke="black" stroke-width="0.75" stroke-miterlimit="10"/>
<path d="M186.053 163.298L220.984 182.649L201.453 313.23L162.782 318.955L186.053 163.298Z" fill="#6464AC" stroke="black" stroke-width="0.75" stroke-miterlimit="10"/>
<path d="M458.578 176.553L449.803 185.97L418.284 396.642L423.86 408.871" fill="#6464AC"/>
<path d="M458.578 176.553L449.803 185.97L418.284 396.642L423.86 408.871" stroke="black" stroke-width="0.75" stroke-miterlimit="10"/>
<path d="M420.042 374.518C420.042 374.518 369.073 374.617 297.932 354.721C229.621 335.603 202.188 305.929 202.188 305.929L220.84 188.795C220.84 188.795 276.46 163.136 346.625 173.647C416.088 184.042 448.869 192.024 448.869 192.024L420.042 374.518Z" fill="white" stroke="black" stroke-width="0.75" stroke-miterlimit="10"/>
<path d="M504.045 365.448L486.504 362.821C479.929 361.846 475.355 355.656 476.367 349.102L475.528 327.788C475.229 320.212 475.636 312.656 476.757 305.149L477.811 298.075C478.981 290.3 480.89 282.662 483.535 275.259L488.397 261.623C489.748 257.802 491.671 254.198 494.27 251.068C496.869 247.938 499.653 245.899 503.873 246.532L521.414 249.159C545.896 252.816 562.94 275.869 559.283 300.35L555.209 327.588C551.552 352.069 528.497 369.113 504.016 365.457L504.045 365.448Z" fill="#4E5FAA" stroke="black" stroke-width="0.75" stroke-miterlimit="10"/>
<path d="M514.205 248.081C514.205 248.081 496.195 271.625 492.598 304.291C489.001 336.957 493.78 363.912 493.78 363.912" fill="#4E5FAA"/>
<path d="M514.205 248.081C514.205 248.081 496.195 271.625 492.598 304.291C489.001 336.957 493.78 363.912 493.78 363.912" stroke="black" stroke-width="0.75" stroke-miterlimit="10"/>
<path d="M565.279 136.457L546.694 260.693C545.961 265.673 541.335 269.162 536.414 268.412C533.954 268.038 531.883 266.693 530.483 264.805C529.112 262.91 528.45 260.493 528.817 258.003L546.111 142.34L207.828 114.098L204.35 137.319L186.307 135.821L191.293 102.566C191.513 101.008 192.162 99.6139 193.026 98.4124C193.16 98.2149 193.302 98.0469 193.445 97.8788C193.587 97.7107 193.768 97.5636 193.91 97.3955C195.726 95.6346 198.243 94.6578 200.913 94.877L202.379 94.997L557.374 124.642C562.319 125.035 566.019 129.505 565.584 134.526L565.563 134.786C565.501 135.344 565.409 135.911 565.242 136.436L565.279 136.457Z" fill="#705DA7" stroke="black" stroke-width="0.75" stroke-miterlimit="10"/>
<path d="M232.498 239.941C232.498 239.941 248.543 215.307 271.428 218.722C299.965 222.995 297.336 250.391 297.336 250.391" stroke="black" stroke-width="6" stroke-miterlimit="10" stroke-linecap="round"/>
<path d="M343.613 251.226C343.613 251.226 359.657 226.593 382.543 230.007C411.08 234.28 408.451 261.676 408.451 261.676" stroke="black" stroke-width="6" stroke-miterlimit="10" stroke-linecap="round"/>
<path d="M349.472 497.962L344.75 488.468C337.415 473.72 343.426 455.816 358.174 448.481L520.82 367.593C535.568 360.259 553.473 366.269 560.808 381.017L576.729 413.029C577.872 415.328 576.937 418.114 574.638 419.257L389.473 511.344C374.725 518.679 356.82 512.669 349.486 497.921L349.472 497.962Z" fill="#4E5FAA" stroke="#231F20" stroke-width="0.75" stroke-miterlimit="10" stroke-linecap="round"/>
<path opacity="0.22" d="M163.319 319.055L201.453 313.23L220.984 182.649L186.582 163.369L163.319 319.055Z" fill="black"/>
<path opacity="0.18" d="M474.163 161.621L478.604 168.453L477.168 189.816L448.157 383.967L477.65 369.304L494.443 360.351L507.556 355.857L522.096 308.701L529.107 261.894L537.781 198.173L474.163 161.621Z" fill="black"/>
<path opacity="0.17" d="M195.552 137.237L199.553 109.192L212.082 107.981L542.83 136.891L546.111 142.339L215.713 114.76L209.442 115.288L206.979 119.778L204.35 137.319L195.552 137.237Z" fill="black"/>
<path opacity="0.25" d="M64.9222 266.892L218.648 411.588L210.137 424.363L202.942 445.376L42.2501 292.028L64.9222 266.892Z" fill="black"/>
<path opacity="0.14" d="M372.244 444.826L350.77 467.489L358.273 490.42L369.283 508.179L525.098 420.638L570.422 400.318L577.775 416.521L373.967 518.185L363.068 516.544L351.89 502.743L338.551 475.319L343.81 456.42L373.445 440.921L372.244 444.826Z" fill="black"/>
</svg>
